<svg width="414" height="78" viewBox="0 0 414 78" fill="none" xmlns="http://www.w3.org/2000/svg">
<path d="M39.1633 38.8H0C0.403746 67.8 26.2435 78 39.1633 78V38.8Z" fill="#0066F5" fill-opacity="0.16"/>
<path d="M35.1256 16.6C35.1256 25.2156 28.0758 32.2 19.3795 32.2C10.6832 32.2 3.63341 25.2156 3.63341 16.6C3.63341 7.98436 10.6832 1 19.3795 1C28.0758 1 35.1256 7.98436 35.1256 16.6Z" fill="#0066F5" fill-opacity="0.16"/>
<path d="M39.1633 38.8H78C77.5963 67.8 52.0832 78 39.1633 78V38.8Z" fill="#0066F5" fill-opacity="0.1"/>
<path d="M42.8741 16.6C42.8741 25.2156 49.9239 32.2 58.6202 32.2C67.3165 32.2 74.3663 25.2156 74.3663 16.6C74.3663 7.98436 67.3165 1 58.6202 1C49.9239 1 42.8741 7.98436 42.8741 16.6Z" fill="#0066F5" fill-opacity="0.1"/>
<path d="M122.3 39.3367V78.5C151.3 78.0963 161.5 52.2565 161.5 39.3367L122.3 39.3367Z" fill="#0066F5" fill-opacity="0.16"/>
<path d="M100.1 43.3744C108.716 43.3744 115.7 50.4242 115.7 59.1205C115.7 67.8168 108.716 74.8666 100.1 74.8666C91.4844 74.8666 84.5 67.8168 84.5 59.1205C84.5 50.4242 91.4844 43.3744 100.1 43.3744Z" fill="#0066F5" fill-opacity="0.16"/>
<path d="M122.3 39.3367V0.5C151.3 0.903748 161.5 26.4168 161.5 39.3367L122.3 39.3367Z" fill="#0066F5" fill-opacity="0.1"/>
<path d="M100.1 35.6259C108.716 35.6259 115.7 28.5761 115.7 19.8798C115.7 11.1835 108.716 4.13371 100.1 4.13371C91.4844 4.13371 84.5 11.1835 84.5 19.8798C84.5 28.5761 91.4844 35.6259 100.1 35.6259Z" fill="#0066F5" fill-opacity="0.1"/>
<path d="M207.163 38.8H168C168.404 67.8 194.243 78 207.163 78V38.8Z" fill="#0066F5" fill-opacity="0.16"/>
<path d="M203.126 16.6C203.126 25.2156 196.076 32.2 187.379 32.2C178.683 32.2 171.633 25.2156 171.633 16.6C171.633 7.98436 178.683 1 187.379 1C196.076 1 203.126 7.98436 203.126 16.6Z" fill="#0066F5" fill-opacity="0.16"/>
<path d="M207.163 38.8H246C245.596 67.8 220.083 78 207.163 78V38.8Z" fill="#0066F5" fill-opacity="0.1"/>
<path d="M210.874 16.6C210.874 25.2156 217.924 32.2 226.62 32.2C235.317 32.2 242.366 25.2156 242.366 16.6C242.366 7.98436 235.317 1 226.62 1C217.924 1 210.874 7.98436 210.874 16.6Z" fill="#0066F5" fill-opacity="0.1"/>
<path d="M290.3 39.3367V78.5C319.3 78.0963 329.5 52.2565 329.5 39.3367L290.3 39.3367Z" fill="#0066F5" fill-opacity="0.16"/>
<path d="M268.1 43.3744C276.716 43.3744 283.7 50.4242 283.7 59.1205C283.7 67.8168 276.716 74.8666 268.1 74.8666C259.484 74.8666 252.5 67.8168 252.5 59.1205C252.5 50.4242 259.484 43.3744 268.1 43.3744Z" fill="#0066F5" fill-opacity="0.16"/>
<path d="M290.3 39.3367V0.5C319.3 0.903748 329.5 26.4168 329.5 39.3367L290.3 39.3367Z" fill="#0066F5" fill-opacity="0.1"/>
<path d="M268.1 35.6259C276.716 35.6259 283.7 28.5761 283.7 19.8798C283.7 11.1835 276.716 4.13371 268.1 4.13371C259.484 4.13371 252.5 11.1835 252.5 19.8798C252.5 28.5761 259.484 35.6259 268.1 35.6259Z" fill="#0066F5" fill-opacity="0.1"/>
<path d="M375.163 38.8H336C336.404 67.8 362.243 78 375.163 78V38.8Z" fill="#0066F5" fill-opacity="0.16"/>
<path d="M371.126 16.6C371.126 25.2156 364.076 32.2 355.379 32.2C346.683 32.2 339.633 25.2156 339.633 16.6C339.633 7.98436 346.683 1 355.379 1C364.076 1 371.126 7.98436 371.126 16.6Z" fill="#0066F5" fill-opacity="0.16"/>
<path d="M375.163 38.8H414C413.596 67.8 388.083 78 375.163 78V38.8Z" fill="#0066F5" fill-opacity="0.1"/>
<path d="M378.874 16.6C378.874 25.2156 385.924 32.2 394.62 32.2C403.317 32.2 410.366 25.2156 410.366 16.6C410.366 7.98436 403.317 1 394.62 1C385.924 1 378.874 7.98436 378.874 16.6Z" fill="#0066F5" fill-opacity="0.1"/>
</svg>
