<svg width="26" height="26" viewBox="0 0 26 26" fill="none" xmlns="http://www.w3.org/2000/svg">
<path d="M13 1.625C6.71836 1.625 1.625 6.71836 1.625 13C1.625 19.2816 6.71836 24.375 13 24.375C19.2816 24.375 24.375 19.2816 24.375 13C24.375 6.71836 19.2816 1.625 13 1.625ZM17.2402 17.7125C16.2094 18.6621 14.8027 19.2207 13.1244 19.2207C10.6945 19.2207 8.59219 17.8268 7.56895 15.7955C7.14746 14.9551 6.90625 14.0055 6.90625 13C6.90625 11.9945 7.14746 11.0449 7.56895 10.2045C8.59219 8.1707 10.6945 6.77676 13.1244 6.77676C14.8002 6.77676 16.2068 7.39375 17.2859 8.39668L15.5035 10.1816C14.8586 9.56465 14.0385 9.25234 13.127 9.25234C11.507 9.25234 10.1359 10.3467 9.6459 11.8168C9.52148 12.19 9.45039 12.5887 9.45039 13C9.45039 13.4113 9.52148 13.81 9.6459 14.1832C10.1359 15.6533 11.507 16.7477 13.1244 16.7477C13.9623 16.7477 14.6732 16.5268 15.2293 16.1535C15.8895 15.7117 16.3262 15.0541 16.4709 14.2746H13.1244V11.8676H18.982C19.0557 12.2764 19.0938 12.7004 19.0938 13.1396C19.0938 15.0363 18.4158 16.6283 17.2402 17.7125Z" fill="white"/>
</svg>
