<svg width="30" height="30" viewBox="0 0 30 30" fill="none" xmlns="http://www.w3.org/2000/svg">
<g clip-path="url(#clip0_846_33)">
<path d="M15 4.3467L14.0521 4V4.00233L14.0489 4.00543L14.0426 4.01551L14.0203 4.04886C13.9096 4.22226 13.8072 4.39843 13.7132 4.57706C13.4795 5.01935 13.2967 5.47519 13.1667 5.93981C12.8871 6.9644 12.795 8.48228 14.2512 9.54875C14.9132 10.0335 15.0053 10.8425 14.7554 11.7569C14.6074 12.2843 14.3764 12.7973 14.0669 13.2857L14.0542 13.305L14.0521 13.3074L15 13.6541C15.9468 14.0008 15.9479 14 15.9479 14V13.9984L15.9511 13.9953L15.9574 13.9853L15.9797 13.9519L16.0538 13.8356C16.4016 13.267 16.663 12.6721 16.8333 12.0617C17.1129 11.0364 17.205 9.5185 15.7488 8.45203C15.0868 7.96727 14.9947 7.1583 15.2446 6.24385C15.3926 5.71649 15.6236 5.20348 15.9331 4.71512L15.9458 4.69573L15.9479 4.6934L15 4.3467Z" fill="#BEC3D5"/>
<path fill-rule="evenodd" clip-rule="evenodd" d="M-1 18.8C-1 18.5878 -0.915714 18.3843 -0.765685 18.2343C-0.615656 18.0843 -0.412173 18 -0.2 18H30.2C30.4122 18 30.6157 18.0843 30.7657 18.2343C30.9157 18.3843 31 18.5878 31 18.8C31 19.0122 30.9157 19.2157 30.7657 19.3657C30.6157 19.5157 30.4122 19.6 30.2 19.6H27.8C27.8 21.2974 27.1257 22.9252 25.9255 24.1255C24.7253 25.3257 23.0974 26 21.4 26H8.6C6.90261 26 5.27475 25.3257 4.07452 24.1255C2.87428 22.9252 2.2 21.2974 2.2 19.6H-0.2C-0.412173 19.6 -0.615656 19.5157 -0.765685 19.3657C-0.915714 19.2157 -1 19.0122 -1 18.8ZM3.8 19.6H26.2C26.2 20.873 25.6943 22.0939 24.7941 22.9941C23.8939 23.8943 22.673 24.4 21.4 24.4H8.6C7.32696 24.4 6.10606 23.8943 5.20589 22.9941C4.30571 22.0939 3.8 20.873 3.8 19.6Z" fill="#BEC3D5"/>
<path d="M7.94557 6L8.61762 6.45336C9.28885 6.90591 9.28966 6.9051 9.28966 6.9051L9.27913 6.92129C9.20807 7.0346 9.14162 7.15073 9.07995 7.26941C8.92687 7.55994 8.80474 7.86574 8.71559 8.18179C8.52126 8.90393 8.5909 9.47387 9.09938 9.84951C10.4127 10.8226 10.3431 12.2774 10.0823 13.2416C9.96318 13.6701 9.79898 14.0847 9.59249 14.4786C9.508 14.6411 9.41669 14.7999 9.31881 14.9547L9.30262 14.9806L9.29857 14.9862L9.29209 14.996L9.29047 14.9992L9.28966 15C9.28966 15 9.28885 15.0016 8.61762 14.5483C7.94638 14.0949 7.94557 14.0957 7.94557 14.0957L7.9561 14.0803L7.99982 14.0107C8.05431 13.9194 8.10615 13.8265 8.15528 13.7322C8.28078 13.491 8.42491 13.1671 8.51964 12.819C8.71397 12.0969 8.64434 11.5278 8.13585 11.1513C6.82253 10.1782 6.89216 8.72421 7.15288 7.7592C7.28648 7.26374 7.48405 6.82819 7.64275 6.52217C7.73313 6.34895 7.8312 6.17985 7.93667 6.01538L7.94233 6.00567L7.94476 6.00162L7.94638 6H7.94557ZM22.3824 6.45255C21.7112 5.99919 21.7103 6 21.7103 6V6.00162L21.7071 6.00567L21.7006 6.01538C21.5936 6.17874 21.4957 6.34793 21.4075 6.52217C21.2488 6.82819 21.0513 7.26374 20.9177 7.7592C20.6569 8.7234 20.5873 10.1782 21.9006 11.1513C22.4091 11.5278 22.4787 12.0969 22.2836 12.819C22.1897 13.1671 22.0456 13.491 21.9192 13.7322C21.8579 13.8509 21.7917 13.9671 21.7209 14.0803L21.7112 14.0965L22.3824 14.5483C23.0536 15.0016 23.0544 15 23.0544 15V14.9992L23.0577 14.996L23.0641 14.9862L23.0763 14.966L23.0844 14.9547C23.1823 14.7999 23.2736 14.6411 23.3581 14.4786C23.5639 14.0845 23.7278 13.6699 23.8471 13.2416C24.1078 12.2774 24.1775 10.8226 22.8642 9.84951C22.3557 9.47306 22.286 8.90393 22.4812 8.18179C22.5751 7.83368 22.7192 7.50985 22.8455 7.2686C22.9069 7.14994 22.9731 7.0338 23.0439 6.92048L23.0536 6.9051L22.3824 6.45255Z" fill="#BEC3D5"/>
</g>
<defs>
<clipPath id="clip0_846_33">
<rect width="30" height="30" fill="white"/>
</clipPath>
</defs>
</svg>
