<svg width="143" height="150" viewBox="0 0 143 150" fill="none" xmlns="http://www.w3.org/2000/svg">
<path d="M75.1 149.1C50.3 149.1 0.8 129.3 0 73.2H75.1V149.1Z" fill="#0066F5"/>
<path d="M37.2 60.4C20.5 60.4 7 46.9 7 30.2C7 13.5 20.5 0 37.2 0C53.9 0 67.4 13.5 67.4 30.2C67.4 46.9 53.9 60.4 37.2 60.4Z" fill="#0066F5"/>
<path opacity="0.9" d="M64.5 73.2H139.6C138.9 129.3 89.3 149.1 64.5 149.1V73.2Z" fill="#0066F5"/>
<path opacity="0.9" d="M82.2 30.2C82.2 13.5 95.7 0 112.5 0C129.2 0 142.7 13.5 142.7 30.2C142.7 46.9 129.2 60.4 112.5 60.4C95.7 60.4 82.2 46.9 82.2 30.2V30.2Z" fill="#0066F5"/>
</svg>
