<svg width="23" height="23" viewBox="0 0 23 23" fill="none" xmlns="http://www.w3.org/2000/svg">
<path d="M11.5 4.92857C10.6877 4.92857 9.89361 5.16945 9.2182 5.62075C8.54278 6.07205 8.01636 6.7135 7.7055 7.46398C7.39464 8.21446 7.3133 9.04027 7.47178 9.83698C7.63025 10.6337 8.02142 11.3655 8.59581 11.9399C9.17021 12.5143 9.90203 12.9055 10.6987 13.0639C11.4954 13.2224 12.3213 13.1411 13.0717 12.8302C13.8222 12.5194 14.4637 11.9929 14.915 11.3175C15.3663 10.6421 15.6071 9.84803 15.6071 9.03571C15.6071 7.94643 15.1744 6.90176 14.4042 6.13152C13.634 5.36129 12.5893 4.92857 11.5 4.92857ZM11.5 11.5C11.0126 11.5 10.5362 11.3555 10.1309 11.0847C9.72567 10.8139 9.40982 10.429 9.2233 9.97875C9.03678 9.52846 8.98798 9.03298 9.08307 8.55495C9.17815 8.07693 9.41285 7.63784 9.75749 7.2932C10.1021 6.94856 10.5412 6.71386 11.0192 6.61878C11.4973 6.52369 11.9928 6.57249 12.443 6.75901C12.8933 6.94553 13.2782 7.26138 13.549 7.66663C13.8198 8.07188 13.9643 8.54832 13.9643 9.03571C13.9636 9.68908 13.7038 10.3155 13.2418 10.7775C12.7798 11.2395 12.1534 11.4993 11.5 11.5Z" fill="#40898A"/>
<path d="M11.5 0C9.22552 0 7.00211 0.674463 5.11095 1.9381C3.21978 3.20174 1.7458 4.99779 0.87539 7.09914C0.00498273 9.20049 -0.222756 11.5128 0.220974 13.7435C0.664704 15.9743 1.75997 18.0234 3.36828 19.6317C4.97658 21.24 7.02568 22.3353 9.25646 22.779C11.4872 23.2228 13.7995 22.995 15.9009 22.1246C18.0022 21.2542 19.7983 19.7802 21.0619 17.8891C22.3255 15.9979 23 13.7745 23 11.5C22.9965 8.45108 21.7838 5.52803 19.6279 3.37211C17.472 1.2162 14.5489 0.00347852 11.5 0ZM6.57143 20.024V18.8929C6.57208 18.2395 6.83192 17.6131 7.29393 17.1511C7.75593 16.6891 8.38235 16.4292 9.03572 16.4286H13.9643C14.6177 16.4292 15.2441 16.6891 15.7061 17.1511C16.1681 17.6131 16.4279 18.2395 16.4286 18.8929V20.024C14.9329 20.8973 13.232 21.3575 11.5 21.3575C9.76801 21.3575 8.06712 20.8973 6.57143 20.024ZM18.0649 18.8321C18.0485 17.7546 17.6095 16.7267 16.8425 15.9699C16.0755 15.213 15.0419 14.7877 13.9643 14.7857H9.03572C7.95815 14.7877 6.92451 15.213 6.15751 15.9699C5.3905 16.7267 4.95152 17.7546 4.93515 18.8321C3.44554 17.502 2.39507 15.7508 1.92283 13.8104C1.4506 11.87 1.57887 9.83196 2.29067 7.9661C3.00247 6.10023 4.26422 4.49458 5.90884 3.36175C7.55347 2.22892 9.50339 1.62234 11.5004 1.62234C13.4974 1.62234 15.4474 2.22892 17.092 3.36175C18.7366 4.49458 19.9984 6.10023 20.7102 7.9661C21.422 9.83196 21.5502 11.87 21.078 13.8104C20.6058 15.7508 19.5553 17.502 18.0657 18.8321H18.0649Z" fill="#40898A"/>
</svg>
