<svg width="30" height="30" viewBox="0 0 30 30" fill="none" xmlns="http://www.w3.org/2000/svg">
<path d="M14.2031 18.504C15.4609 17.6684 16.4163 16.4501 16.9279 15.0293C17.4395 13.6085 17.4801 12.0608 17.0437 10.6152C16.6073 9.16957 15.7171 7.90284 14.5048 7.00248C13.2925 6.10212 11.8226 5.61597 10.3125 5.61597C8.80243 5.61597 7.33248 6.10212 6.12019 7.00248C4.9079 7.90284 4.01768 9.16957 3.58127 10.6152C3.14487 12.0608 3.18546 13.6085 3.69705 15.0293C4.20864 16.4501 5.16405 17.6684 6.42187 18.504C4.27613 19.293 2.42353 20.7203 1.11328 22.5938C1.02788 22.6928 0.964114 22.8085 0.926076 22.9335C0.888038 23.0586 0.876569 23.1902 0.892403 23.3199C0.908238 23.4497 0.951027 23.5747 1.01802 23.6869C1.08502 23.7991 1.17474 23.8961 1.28143 23.9716C1.38812 24.0471 1.50942 24.0995 1.63754 24.1253C1.76567 24.1512 1.89778 24.15 2.0254 24.1217C2.15302 24.0935 2.27333 24.0389 2.37861 23.9615C2.48389 23.884 2.5718 23.7854 2.63671 23.6719C3.50305 22.4412 4.65263 21.4368 5.98851 20.7435C7.3244 20.0502 8.80741 19.6883 10.3125 19.6883C11.8176 19.6883 13.3006 20.0502 14.6365 20.7435C15.9724 21.4368 17.1219 22.4412 17.9883 23.6719C18.0532 23.7854 18.1411 23.884 18.2464 23.9615C18.3517 24.0389 18.472 24.0935 18.5996 24.1217C18.7272 24.15 18.8593 24.1512 18.9874 24.1253C19.1156 24.0995 19.2369 24.0471 19.3436 23.9716C19.4502 23.8961 19.54 23.7991 19.607 23.6869C19.674 23.5747 19.7168 23.4497 19.7326 23.3199C19.7484 23.1902 19.737 23.0586 19.6989 22.9335C19.6609 22.8085 19.5971 22.6928 19.5117 22.5938C18.2015 20.7203 16.3489 19.293 14.2031 18.504ZM5.15625 12.6563C5.15625 11.6365 5.45865 10.6396 6.02523 9.79165C6.59181 8.94371 7.3971 8.28282 8.33928 7.89256C9.28147 7.50229 10.3182 7.40018 11.3184 7.59914C12.3186 7.79809 13.2374 8.28918 13.9585 9.01029C14.6796 9.7314 15.1707 10.6502 15.3697 11.6504C15.5686 12.6506 15.4665 13.6873 15.0763 14.6295C14.686 15.5717 14.0251 16.377 13.1772 16.9436C12.3292 17.5102 11.3323 17.8126 10.3125 17.8126C8.94497 17.8126 7.63346 17.2693 6.66648 16.3023C5.69949 15.3353 5.15625 14.0238 5.15625 12.6563ZM28.8398 23.8946C28.7402 23.9663 28.6272 24.0175 28.5075 24.0452C28.3878 24.0729 28.2639 24.0764 28.1428 24.0557C28.0217 24.035 27.906 23.9904 27.8024 23.9245C27.6987 23.8586 27.6092 23.7728 27.5391 23.6719C26.6721 22.4418 25.5224 21.4378 24.1867 20.7444C22.8509 20.0511 21.3682 19.6886 19.8633 19.6876C19.6146 19.6876 19.3762 19.5888 19.2004 19.413C19.0245 19.2372 18.9258 18.9987 18.9258 18.7501C18.9258 18.5014 19.0245 18.263 19.2004 18.0871C19.3762 17.9113 19.6146 17.8126 19.8633 17.8126C21.2308 17.8126 22.5423 17.2693 23.5093 16.3023C24.4763 15.3353 25.0195 14.0238 25.0195 12.6563C25.0195 11.2888 24.4763 9.97727 23.5093 9.01029C22.5423 8.04331 21.2308 7.50006 19.8633 7.50006C19.3924 7.50319 18.9238 7.5662 18.4687 7.68756C18.3502 7.72155 18.2262 7.73183 18.1037 7.71782C17.9813 7.70381 17.8628 7.66578 17.755 7.60592C17.6472 7.54605 17.5523 7.46552 17.4757 7.36893C17.3991 7.27234 17.3423 7.16159 17.3086 7.04303C17.2431 6.80378 17.2739 6.54841 17.3944 6.33159C17.5149 6.11476 17.7154 5.9537 17.9531 5.88287C18.5761 5.71513 19.2181 5.62848 19.8633 5.62506C21.3749 5.61962 22.8479 6.10229 24.0632 7.00129C25.2784 7.90028 26.171 9.16755 26.6082 10.6146C27.0453 12.0616 27.0036 13.6112 26.4894 15.0326C25.9751 16.4541 25.0157 17.6716 23.7539 18.504C25.901 19.2962 27.7565 20.7226 29.0742 22.5938C29.2149 22.7976 29.2692 23.0488 29.2253 23.2925C29.1813 23.5362 29.0428 23.7527 28.8398 23.8946Z" fill="black"/>
</svg>
