<svg width="23" height="25" viewBox="0 0 23 25" fill="none" xmlns="http://www.w3.org/2000/svg">
<path d="M19.3722 13.394C19.3722 12.8414 19.1493 12.3115 18.7524 11.9207C18.3556 11.53 17.8173 11.3105 17.256 11.3105H9.3959C8.89043 11.3105 8.42608 11.4855 8.06209 11.776L10.7442 13.0964H10.9075V13.1773L11.6306 13.5333C12.0708 13.75 12.4408 14.0631 12.7213 14.4405V13.0964H17.256C17.3362 13.0964 17.4131 13.1277 17.4698 13.1835C17.5265 13.2394 17.5584 13.3151 17.5584 13.394V14.8822H12.9922C13.193 15.2835 13.3018 15.7311 13.3018 16.1954V16.6681H17.5584V18.1563C17.5584 18.2353 17.5265 18.311 17.4698 18.3668C17.4131 18.4226 17.3362 18.454 17.256 18.454H13.3018V20.2398H17.256C17.8173 20.2398 18.3556 20.0203 18.7524 19.6296C19.1493 19.2388 19.3722 18.7089 19.3722 18.1563V13.394ZM13.1627 22.0257H20.5815C20.7419 22.0257 20.8956 21.963 21.009 21.8513C21.1224 21.7397 21.1861 21.5883 21.1861 21.4304V9.52463H15.7445C15.1031 9.52463 14.4879 9.27375 14.0343 8.8272C13.5808 8.38065 13.326 7.77499 13.326 7.14347V1.78587H6.07045C5.9101 1.78587 5.75631 1.84859 5.64292 1.96022C5.52953 2.07186 5.46583 2.22328 5.46583 2.38116V11.1914C5.19799 11.2428 4.93846 11.3298 4.69432 11.4498L3.65195 11.9629V2.38116C3.65195 1.74963 3.90675 1.14398 4.36031 0.697424C4.81387 0.250871 5.42902 0 6.07045 0H13.534C13.5678 0 13.6005 0.00476228 13.6331 0.00833401C13.6568 0.0122152 13.6806 0.0149963 13.7045 0.016668C13.9645 0.0345267 14.2208 0.0833404 14.459 0.180968C14.528 0.209542 14.5945 0.24764 14.6598 0.284548L14.7202 0.319075L14.7771 0.347649C14.8109 0.362814 14.8437 0.380319 14.875 0.400034C14.9693 0.463135 15.054 0.538141 15.1399 0.614338C15.1539 0.626772 15.1684 0.638686 15.1834 0.650056C15.2042 0.66466 15.2239 0.680567 15.2426 0.697679L22.2914 7.63637C22.745 8.08282 22.9999 8.68838 23 9.31985V21.4304C23 22.0619 22.7452 22.6676 22.2916 23.1141C21.8381 23.5607 21.2229 23.8116 20.5815 23.8116H11.5943L11.6306 23.7937C11.9934 23.6152 12.316 23.3668 12.5792 23.063C12.8424 22.7593 13.0408 22.4065 13.1627 22.0257ZM15.7445 7.73876H19.8293L15.1399 3.12051V7.14347C15.1399 7.30135 15.2036 7.45276 15.3169 7.5644C15.4303 7.67604 15.5841 7.73876 15.7445 7.73876ZM0 21.1304V16.1942C0.000235974 15.8626 0.0942562 15.5376 0.271527 15.2556C0.448798 14.9736 0.702317 14.7458 1.00368 14.5977L5.23607 12.5142C5.48783 12.3903 5.76542 12.3258 6.04687 12.3258C6.32832 12.3258 6.60591 12.3903 6.85768 12.5142L11.0901 14.5977C11.3914 14.7458 11.6449 14.9736 11.8222 15.2556C11.9995 15.5376 12.0935 15.8626 12.0937 16.1942V21.1304C12.0937 21.4622 11.9998 21.7875 11.8225 22.0697C11.6453 22.3519 11.3916 22.5799 11.0901 22.7281L6.85768 24.8117C6.60591 24.9355 6.32832 25 6.04687 25C5.76542 25 5.48783 24.9355 5.23607 24.8117L1.00368 22.7281C0.702133 22.5799 0.448493 22.3519 0.271209 22.0697C0.0939258 21.7875 1.13851e-05 21.4622 0 21.1304ZM1.87797 16.3133C1.8066 16.4545 1.79504 16.6178 1.84583 16.7673C1.89661 16.9169 2.00559 17.0405 2.14884 17.111L5.44164 18.7337V22.234C5.44164 22.3919 5.50534 22.5433 5.61873 22.655C5.73212 22.7666 5.88591 22.8293 6.04627 22.8293C6.20662 22.8293 6.36041 22.7666 6.4738 22.655C6.58719 22.5433 6.65089 22.3919 6.65089 22.234V18.7337L9.9449 17.1122C10.016 17.0772 10.0793 17.0289 10.1314 16.9698C10.1835 16.9107 10.2232 16.8422 10.2484 16.768C10.2735 16.6938 10.2836 16.6155 10.278 16.5374C10.2724 16.4594 10.2513 16.3833 10.2158 16.3133C10.1803 16.2433 10.1311 16.1809 10.0712 16.1297C10.0112 16.0784 9.94151 16.0393 9.86617 16.0145C9.714 15.9645 9.54788 15.976 9.40436 16.0466L6.04627 17.6991L2.68938 16.0466C2.54599 15.9763 2.38015 15.965 2.22825 16.015C2.07635 16.065 1.95081 16.1723 1.87918 16.3133H1.87797Z" fill="black"/>
</svg>
