<svg width="229" height="228" viewBox="0 0 229 228" fill="none" xmlns="http://www.w3.org/2000/svg">
<path d="M187.187 31.0674C187.187 31.3654 186.742 31.5889 185.85 31.7379C185.107 31.8869 184.661 31.7379 184.512 31.2909C180.946 14.3044 170.618 5.81116 153.528 5.81116H144.612C139.262 5.81116 135.473 6.77968 133.243 8.71674C131.014 10.6538 129.9 13.8574 129.9 18.3275V66.8284H148.178C164.822 66.8284 173.144 61.2407 173.144 50.0654C173.144 49.7674 173.59 49.6184 174.482 49.6184C175.373 49.6184 175.819 49.7674 175.819 50.0654L175.596 69.734C175.596 74.3531 175.67 77.7802 175.819 80.0152L176.042 91.6376C176.042 92.0846 175.596 92.3081 174.704 92.3081C173.813 92.3081 173.367 92.0846 173.367 91.6376C173.367 78.9722 164.822 72.6395 147.733 72.6395H129.9V120.693C129.9 125.462 130.494 128.963 131.683 131.198C132.872 133.284 135.175 134.774 138.593 135.668C142.16 136.562 147.584 137.009 154.866 137.009C155.163 137.009 155.311 137.456 155.311 138.35C155.311 139.244 155.163 139.691 154.866 139.691C148.773 139.691 144.017 139.617 140.599 139.468L118.754 139.244L102.482 139.468C99.6586 139.617 95.7206 139.691 90.668 139.691C90.2222 139.691 89.9993 139.244 89.9993 138.35C89.9993 137.456 90.2222 137.009 90.668 137.009C96.0178 137.009 99.8815 136.637 102.259 135.892C104.786 135.147 106.494 133.731 107.386 131.645C108.278 129.41 108.724 126.058 108.724 121.587V18.104C108.724 13.6339 108.278 10.3558 107.386 8.26973C106.643 6.18367 105.083 4.76812 102.705 4.0231C100.327 3.12908 96.6865 2.68207 91.7825 2.68207C91.3367 2.68207 91.1138 2.23506 91.1138 1.34103C91.1138 0.447011 91.3367 0 91.7825 0H184.512C185.999 0 186.742 0.670515 186.742 2.01154L187.187 31.0674Z" fill="white"/>
<path d="M47.721 104.824C47.721 104.526 47.4238 104.377 46.8293 104.377C46.3835 104.377 46.012 104.526 45.7148 104.824C45.269 104.973 45.0461 105.122 45.0461 105.271C46.5321 116.596 47.2752 126.952 47.2752 136.339C47.2752 137.531 47.4981 138.425 47.9439 139.021C48.3897 139.468 49.2813 139.691 50.6188 139.691H147.361C147.807 139.691 148.03 139.244 148.03 138.35C148.03 137.456 147.807 137.009 147.361 137.009C142.308 137.009 138.668 136.637 136.439 135.892C134.061 135.147 132.5 133.731 131.757 131.645C130.866 129.41 130.42 126.058 130.42 121.587V18.104C130.42 13.6339 130.866 10.3558 131.757 8.26973C132.5 6.18367 134.061 4.76812 136.439 4.0231C138.816 3.12908 142.457 2.68207 147.361 2.68207C147.807 2.68207 148.03 2.23506 148.03 1.34103C148.03 0.447011 147.807 0 147.361 0H54.6311C53.1451 0 52.402 0.670515 52.402 2.01154L51.9562 31.0674C51.9562 31.3654 52.402 31.5889 53.2937 31.7379C54.0367 31.8869 54.4825 31.7379 54.6311 31.2909C58.1977 14.3044 68.5258 5.81116 85.6154 5.81116H94.5317C99.8815 5.81116 103.671 6.77968 105.9 8.71674C108.129 10.6538 109.244 13.9319 109.244 18.551V64.1463H87.8445C71.4979 64.1463 63.3246 58.6331 63.3246 47.6068C63.3246 47.1598 62.953 46.9363 62.21 46.9363C61.3184 46.9363 60.8726 47.1598 60.8726 47.6068L61.0955 67.0519L60.8726 77.5567C60.5754 82.3248 60.4268 86.1989 60.4268 89.179C60.4268 89.477 60.8726 89.626 61.7642 89.626C62.6558 89.626 63.1017 89.477 63.1017 89.179C63.1017 76.3646 71.4236 69.9575 88.0674 69.9575H109.244V120.693C109.244 125.611 108.352 129.038 106.569 130.975C104.637 132.912 101.293 133.88 96.5379 133.88H85.6154C65.7023 133.88 53.0708 124.195 47.721 104.824Z" fill="white"/>
<path d="M19.4413 199.839V203.018H0.340555V174.807H19.0847V177.986H3.90709V187.124H17.1033V190.105H3.90709V199.839H19.4413Z" fill="white"/>
<path d="M42.4046 174.807H45.4164L56.9085 203.018H53.1042L49.7754 194.753H37.9663L34.6771 203.018H30.8728L42.4046 174.807ZM48.9829 191.972L43.9105 178.939L38.6796 191.972H48.9829Z" fill="white"/>
<path d="M86.3123 180.727C85.9953 180.356 85.5726 179.999 85.0442 179.654C84.5158 179.31 83.9214 179.005 83.2609 178.74C82.6005 178.449 81.8739 178.224 81.0814 178.065C80.3152 177.88 79.5095 177.787 78.6641 177.787C76.4977 177.787 74.8994 178.197 73.8691 179.019C72.8387 179.84 72.3236 180.966 72.3236 182.396C72.3236 183.403 72.5878 184.197 73.1161 184.78C73.6445 185.363 74.4503 185.84 75.5334 186.211C76.643 186.581 78.0432 186.965 79.734 187.363C81.689 187.787 83.3798 188.303 84.8064 188.912C86.233 189.522 87.3294 190.343 88.0956 191.376C88.8617 192.383 89.2448 193.734 89.2448 195.429C89.2448 196.78 88.9806 197.959 88.4522 198.965C87.9503 199.945 87.237 200.767 86.3123 201.429C85.3876 202.065 84.3045 202.541 83.0628 202.859C81.8211 203.151 80.4738 203.296 79.0207 203.296C77.5941 203.296 76.1939 203.151 74.8201 202.859C73.4728 202.541 72.1915 202.091 70.9762 201.508C69.7609 200.926 68.6249 200.197 67.5682 199.323L69.2722 196.303C69.6949 196.753 70.2365 197.204 70.8969 197.654C71.5838 198.078 72.35 198.475 73.1954 198.846C74.0672 199.217 75.0051 199.522 76.009 199.76C77.0129 199.972 78.0432 200.078 79.1 200.078C81.1078 200.078 82.6665 199.72 83.7761 199.005C84.8857 198.263 85.4405 197.19 85.4405 195.787C85.4405 194.727 85.1235 193.879 84.4894 193.244C83.8818 192.608 82.9703 192.078 81.7551 191.654C80.5398 191.23 79.0603 190.807 77.3167 190.383C75.4146 189.906 73.8162 189.389 72.5217 188.833C71.2272 188.25 70.2497 187.495 69.5892 186.568C68.9552 185.641 68.6381 184.436 68.6381 182.952C68.6381 181.151 69.0741 179.628 69.9459 178.383C70.8177 177.138 72.0197 176.197 73.552 175.562C75.0843 174.926 76.8148 174.608 78.7433 174.608C80.0114 174.608 81.1871 174.741 82.2702 175.005C83.3798 175.27 84.4101 175.641 85.3612 176.118C86.3123 176.595 87.1841 177.164 87.9767 177.827L86.3123 180.727Z" fill="white"/>
<path d="M103.82 174.807L112.34 189.508L120.939 174.807H124.823L114.123 192.727V203.018H110.557V192.648L99.8967 174.807H103.82Z" fill="white"/>
<path d="M156.291 203.018V174.807H174.877V177.986H159.858V187.403H172.499V190.383H159.858V203.018H156.291Z" fill="white"/>
<path d="M188.906 203.018V174.807H192.472V203.018H188.906Z" fill="white"/>
<path d="M229 177.986H219.291V203.018H215.725V177.986H206.016V174.807H229V177.986Z" fill="white"/>
<path d="M12.021 212.865V227.852H10.1262V221.034H1.89472V227.852H0V212.865H1.89472V219.345H10.1262V212.865H12.021Z" fill="white"/>
<path d="M30.8042 226.164V227.852H20.6569V212.865H30.6147V214.554H22.5516V219.409H29.5621V220.992H22.5516V226.164H30.8042Z" fill="white"/>
<path d="M43.0034 212.865H44.6034L50.7086 227.852H48.6876L46.9192 223.462H40.6456L38.8982 227.852H36.8772L43.0034 212.865ZM46.4981 221.984L43.8034 215.06L41.0245 221.984H46.4981Z" fill="white"/>
<path d="M57.7561 227.852V212.865H59.6508V226.164H67.9876V227.852H57.7561Z" fill="white"/>
<path d="M83.5793 214.554H78.4214V227.852H76.5267V214.554H71.3688V212.865H83.5793V214.554Z" fill="white"/>
<path d="M102.806 212.865V227.852H100.911V221.034H92.6794V227.852H90.7846V212.865H92.6794V219.345H100.911V212.865H102.806Z" fill="white"/>
<path d="M112.01 212.865L116.536 220.675L121.105 212.865H123.168L117.484 222.385V227.852H115.589V222.343L109.926 212.865H112.01Z" fill="white"/>
<path d="M152.812 227.852V216.411L147.885 225.214H146.727L141.78 216.411V227.852H139.885V212.865H141.885L147.296 222.596L152.727 212.865H154.706V227.852H152.812Z" fill="white"/>
<path d="M173.486 226.164V227.852H163.338V212.865H173.296V214.554H165.233V219.409H172.243V220.992H165.233V226.164H173.486Z" fill="white"/>
<path d="M185.685 212.865H187.285L193.39 227.852H191.369L189.601 223.462H183.327L181.58 227.852H179.559L185.685 212.865ZM189.18 221.984L186.485 215.06L183.706 221.984H189.18Z" fill="white"/>
<path d="M200.438 227.852V212.865H202.332V226.164H210.669V227.852H200.438Z" fill="white"/>
<path d="M226.563 216.01C226.395 215.813 226.17 215.623 225.89 215.44C225.609 215.257 225.293 215.095 224.942 214.955C224.591 214.8 224.205 214.68 223.784 214.596C223.377 214.497 222.949 214.448 222.5 214.448C221.349 214.448 220.5 214.666 219.953 215.102C219.405 215.539 219.132 216.137 219.132 216.897C219.132 217.431 219.272 217.854 219.553 218.163C219.834 218.473 220.262 218.726 220.837 218.923C221.426 219.12 222.17 219.324 223.069 219.535C224.107 219.76 225.005 220.035 225.763 220.359C226.521 220.682 227.104 221.118 227.511 221.667C227.918 222.202 228.121 222.92 228.121 223.82C228.121 224.538 227.981 225.164 227.7 225.699C227.433 226.22 227.055 226.656 226.563 227.008C226.072 227.346 225.497 227.599 224.837 227.768C224.177 227.923 223.462 228 222.69 228C221.932 228 221.188 227.923 220.458 227.768C219.742 227.599 219.062 227.36 218.416 227.05C217.77 226.741 217.167 226.354 216.605 225.889L217.511 224.285C217.735 224.524 218.023 224.763 218.374 225.003C218.739 225.228 219.146 225.439 219.595 225.636C220.058 225.833 220.556 225.995 221.09 226.121C221.623 226.234 222.17 226.29 222.732 226.29C223.798 226.29 224.626 226.1 225.216 225.72C225.805 225.326 226.1 224.756 226.1 224.01C226.1 223.448 225.932 222.997 225.595 222.659C225.272 222.322 224.788 222.04 224.142 221.815C223.497 221.59 222.711 221.365 221.784 221.14C220.774 220.886 219.925 220.612 219.237 220.316C218.549 220.007 218.03 219.606 217.679 219.113C217.342 218.621 217.174 217.98 217.174 217.192C217.174 216.235 217.405 215.426 217.869 214.765C218.332 214.103 218.97 213.604 219.784 213.266C220.598 212.928 221.518 212.759 222.542 212.759C223.216 212.759 223.84 212.83 224.416 212.97C225.005 213.111 225.553 213.308 226.058 213.561C226.563 213.815 227.026 214.117 227.447 214.469L226.563 216.01Z" fill="white"/>
</svg>
