<svg width="428" height="926" viewBox="0 0 428 926" fill="none" xmlns="http://www.w3.org/2000/svg">
<g clip-path="url(#clip0_203_227)">
<rect width="428" height="926" fill="white"/>
<rect x="22" y="158" width="31.482" height="4.28" transform="rotate(-6 22 158)" fill="#F62584" fill-opacity="0.9"/>
<rect x="345" y="107" width="28.482" height="5.28" transform="rotate(-76 345 107)" fill="#C9FCBE" fill-opacity="0.6"/>
<rect x="174" y="285" width="37.482" height="5.28" transform="rotate(-42 174 285)" fill="#C9FCBE" fill-opacity="0.65"/>
<rect x="423" y="561" width="16.482" height="7.28" transform="rotate(-103 423 561)" fill="#C9FCBE"/>
<rect x="347" y="444" width="20.482" height="5.28" transform="rotate(98 347 444)" fill="#4BC8EF" fill-opacity="0.45"/>
<rect x="149" y="78" width="32.482" height="8.28" transform="rotate(100 149 78)" fill="#9AF5FC" fill-opacity="0.9"/>
<rect x="356" y="894" width="29.482" height="8.28" transform="rotate(143 356 894)" fill="#DCBCFA" fill-opacity="0.65"/>
<rect x="212" y="26" width="27.482" height="8.28" transform="rotate(23 212 26)" fill="#03A3F5"/>
<rect x="114" y="449" width="8.482" height="8.28" transform="rotate(-42 114 449)" fill="#480CA7" fill-opacity="0.65"/>
<rect x="194" y="585" width="20.482" height="5.28" transform="rotate(-3 194 585)" fill="#FC9E1C"/>
<rect x="304" y="185" width="12.482" height="7.28" transform="rotate(-39 304 185)" fill="#FC9E1C" fill-opacity="0.85"/>
<rect x="145" y="399" width="36.482" height="4.28" transform="rotate(116 145 399)" fill="#FC9E1C" fill-opacity="0.6"/>
<rect x="91" y="902" width="33.482" height="5.28" fill="#F54721"/>
<rect x="76" y="757" width="9.482" height="5.28" transform="rotate(-81 76 757)" fill="#FC9E1C" fill-opacity="0.85"/>
<rect x="64" y="171" width="30.482" height="5.28" transform="rotate(114 64 171)" fill="#FF21FB" fill-opacity="0.85"/>
<rect x="315" y="482" width="13.482" height="5.28" transform="rotate(-166 315 482)" fill="#03A3F5"/>
<rect x="177" y="41" width="9.482" height="7.28" transform="rotate(-26 177 41)" fill="#FFED36" fill-opacity="0.35"/>
<rect x="199" y="602" width="32.482" height="6.28" transform="rotate(-153 199 602)" fill="#FFED36" fill-opacity="0.65"/>
<rect x="151" y="472" width="9.482" height="6.28" transform="rotate(6 151 472)" fill="#9DED1A" fill-opacity="0.65"/>
<rect x="265" y="755" width="33.482" height="9.28" transform="rotate(78 265 755)" fill="#4BC8EF"/>
<rect x="315" y="794" width="18.482" height="8.28" transform="rotate(-55 315 794)" fill="#FC9E1C" fill-opacity="0.6"/>
<rect x="33" y="52" width="18.482" height="8.28" transform="rotate(51 33 52)" fill="#9DED1A" fill-opacity="0.75"/>
<rect x="187" y="888" width="9.482" height="6.28" transform="rotate(-175 187 888)" fill="#4BC8EF"/>
<rect x="120" y="149" width="36.482" height="6.28" transform="rotate(21 120 149)" fill="#FF21FB" fill-opacity="0.9"/>
<rect x="209" y="320" width="12.482" height="5.28" transform="rotate(-56 209 320)" fill="#BA3E03" fill-opacity="0.35"/>
<circle cx="131.815" cy="272.815" r="3.815" fill="#4BC8EF" fill-opacity="0.85"/>
<circle cx="402.315" cy="74.315" r="5.315" fill="#F54721" fill-opacity="0.9"/>
<circle cx="126.815" cy="433.815" r="3.815" fill="#F54721" fill-opacity="0.9"/>
<circle cx="87.815" cy="582.815" r="2.815" fill="#BA3E03" fill-opacity="0.85"/>
<circle cx="146.315" cy="753.315" r="4.315" fill="#F54721"/>
<circle cx="212.815" cy="632.815" r="4.815" fill="#755FFE" fill-opacity="0.45"/>
<circle cx="215.315" cy="223.315" r="4.315" fill="#C9FCBE" fill-opacity="0.9"/>
<circle cx="274.315" cy="404.315" r="3.315" fill="#C9FCBE" fill-opacity="0.65"/>
<circle cx="266.815" cy="565.815" r="6.815" fill="#BA3E03" fill-opacity="0.65"/>
<circle cx="179.315" cy="792.315" r="5.315" fill="#480CA7" fill-opacity="0.85"/>
<circle cx="97.315" cy="61.315" r="4.315" fill="#FF21FB" fill-opacity="0.35"/>
<circle cx="384.315" cy="785.315" r="5.315" fill="#FC9E1C" fill-opacity="0.75"/>
<circle cx="389.315" cy="551.315" r="6.315" fill="#FF21FB" fill-opacity="0.45"/>
<circle cx="204.315" cy="385.315" r="2.315" fill="#DCBCFA" fill-opacity="0.65"/>
<circle cx="32.315" cy="776.315" r="2.315" fill="#F62584" fill-opacity="0.75"/>
<circle cx="212.315" cy="388.315" r="2.315" fill="#F54721"/>
<circle cx="199.315" cy="566.315" r="6.315" fill="#C9FCBE" fill-opacity="0.9"/>
<circle cx="61.815" cy="429.815" r="3.815" fill="#C9FCBE" fill-opacity="0.65"/>
<circle cx="97.815" cy="673.815" r="5.815" fill="#9DED1A" fill-opacity="0.9"/>
<circle cx="56.315" cy="811.315" r="4.315" fill="#FFED36" fill-opacity="0.6"/>
<circle cx="187.815" cy="425.815" r="5.815" fill="#FF21FB" fill-opacity="0.9"/>
<circle cx="325.315" cy="136.315" r="3.315" fill="#4BC8EF" fill-opacity="0.45"/>
<circle cx="211.815" cy="555.815" r="5.815" fill="#03A3F5" fill-opacity="0.85"/>
<circle cx="420.815" cy="560.815" r="6.815" fill="#FC9E1C" fill-opacity="0.75"/>
<circle cx="254.315" cy="737.315" r="4.315" fill="#9DED1A" fill-opacity="0.75"/>
<path d="M116.389 807.671L107.107 803.731L111.047 794.449L120.329 798.389L116.389 807.671Z" fill="#9AF5FC" fill-opacity="0.35"/>
<path d="M222.428 517.982L232.874 510.393L240.463 520.839L230.018 528.428L222.428 517.982Z" fill="#03A3F5" fill-opacity="0.75"/>
<path d="M271.987 208.772L279.202 209.53L278.444 216.745L271.228 215.987L271.987 208.772Z" fill="#9AF5FC" fill-opacity="0.45"/>
<path d="M217.794 903.002L204.684 894.159L218.897 887.227L217.794 903.002Z" fill="#03A3F5" fill-opacity="0.35"/>
<path d="M304.484 560.823L315.73 569.298L302.768 574.8L304.484 560.823Z" fill="#FC9E1C" fill-opacity="0.75"/>
<path d="M165.429 591.671L162.691 586.298L166.956 582.033L172.329 584.771L171.386 590.728L165.429 591.671Z" fill="#BA3E03"/>
<path d="M255.105 562.692L252.519 551.489L263.722 548.902L266.308 560.105L255.105 562.692Z" fill="#FF21FB"/>
<path d="M181.683 96.1787L193.435 106.76L178.395 111.647L181.683 96.1787Z" fill="#F54721" fill-opacity="0.85"/>
<path d="M151.71 615.074L148.091 610.762L150.016 605.471L155.561 604.493L159.18 608.806L157.254 614.097L151.71 615.074Z" fill="#BA3E03" fill-opacity="0.65"/>
<path d="M278.245 280.951L284.539 279.146L286.344 285.44L280.049 287.245L278.245 280.951Z" fill="#4BC8EF" fill-opacity="0.6"/>
<path d="M372.371 631.116L365.626 624.602L372.14 617.858L378.884 624.371L372.371 631.116Z" fill="#C9FCBE"/>
<path d="M422.468 727.06L422.075 732.676L417.015 735.145L412.348 731.996L412.74 726.38L417.801 723.912L422.468 727.06Z" fill="#DCBCFA"/>
<path d="M98.0153 889.85L106.852 890.779L101.629 897.967L98.0153 889.85Z" fill="#FFED36" fill-opacity="0.6"/>
<path d="M11.4824 440.026L19.939 434.534L25.4308 442.991L16.9742 448.482L11.4824 440.026Z" fill="#F54721" fill-opacity="0.45"/>
<path d="M345.97 130.103L350.455 137.871L344.453 144.537L336.259 140.889L337.197 131.968L345.97 130.103Z" fill="#4BC8EF" fill-opacity="0.85"/>
<path d="M18.4943 313.962L26.0768 316.573L20.0245 321.835L18.4943 313.962Z" fill="#BA3E03" fill-opacity="0.9"/>
<path d="M70.3592 260.096L66.7561 265.056L60.6597 264.415L58.1664 258.815L61.7695 253.856L67.8659 254.496L70.3592 260.096Z" fill="#755FFE" fill-opacity="0.35"/>
<path d="M307.896 315.311L316.48 316.517L315.274 325.102L306.689 323.896L307.896 315.311Z" fill="#DCBCFA" fill-opacity="0.9"/>
<path d="M394.231 258.374L397.745 252.751L404.371 252.983L407.483 258.837L403.97 264.459L397.344 264.228L394.231 258.374Z" fill="#9DED1A" fill-opacity="0.6"/>
<path d="M172.131 927.253L163.268 926.633L168.236 919.267L172.131 927.253Z" fill="#480CA7"/>
<path d="M283.718 768.65L288.248 766.241L292.598 768.96L292.419 774.086L287.89 776.495L283.539 773.776L283.718 768.65Z" fill="#FC9E1C"/>
<path d="M51.9898 672.89L52.9253 683.583L43.0455 687.776L36.0041 679.676L41.5319 670.476L51.9898 672.89Z" fill="#755FFE" fill-opacity="0.9"/>
<path d="M83.0281 176.639L85.4177 168.305L93.751 170.695L91.3614 179.028L83.0281 176.639Z" fill="#DCBCFA" fill-opacity="0.9"/>
<path d="M213.546 326.074L213.385 321.446L217.311 318.993L221.399 321.166L221.561 325.794L217.635 328.247L213.546 326.074Z" fill="#480CA7"/>
<path d="M116.225 49.623L113.058 35.9024L126.524 40.0194L116.225 49.623Z" fill="#FC9E1C" fill-opacity="0.6"/>
<path d="M378.791 26.8588L371.729 27.6393L367.724 33.5089L366.943 26.4462L361.074 22.4413L368.136 21.6608L372.141 15.7913L372.922 22.8539L378.791 26.8588Z" fill="#DCBCFA" fill-opacity="0.35"/>
<path d="M211.309 215.065L210.271 219.203L214.374 220.374L210.271 221.544L211.309 225.682L208.244 222.715L205.179 225.682L206.216 221.544L202.114 220.374L206.216 219.203L205.179 215.065L208.244 218.032L211.309 215.065Z" fill="#BA3E03"/>
<path d="M251.111 519.058L255.431 523.087L260.597 520.223L258.1 525.577L262.42 529.605L256.558 528.885L254.061 534.239L252.934 528.44L247.072 527.72L252.238 524.857L251.111 519.058Z" fill="#FFED36" fill-opacity="0.75"/>
<path d="M275.385 185.016L282.111 186.945L286.023 181.144L286.267 188.137L292.993 190.065L286.418 192.458L286.662 199.451L282.355 193.937L275.78 196.33L279.693 190.53L275.385 185.016Z" fill="#480CA7" fill-opacity="0.6"/>
<path d="M109.038 651.494L107.305 654.378L109.512 656.916L106.234 656.16L104.502 659.043L104.209 655.692L100.931 654.935L104.027 653.621L103.734 650.27L105.941 652.809L109.038 651.494Z" fill="#03A3F5" fill-opacity="0.45"/>
<path d="M88.3922 412.815L84.2726 409.106L79.4718 411.877L81.7265 406.813L77.6069 403.104L83.12 403.683L85.3748 398.619L86.5273 404.041L92.0405 404.621L87.2397 407.393L88.3922 412.815Z" fill="#DCBCFA" fill-opacity="0.85"/>
<path d="M191.93 535.298L190.584 539.057L192.562 542.525L188.803 541.179L185.335 543.157L186.68 539.398L184.702 535.93L188.462 537.275L191.93 535.298Z" fill="#FF21FB" fill-opacity="0.85"/>
<path d="M225.24 518.097L222.154 514.458L217.383 514.433L221.021 511.347L221.047 506.576L224.133 510.214L228.903 510.24L225.265 513.326L225.24 518.097Z" fill="#FF21FB" fill-opacity="0.75"/>
<path d="M287.018 911.073L281.946 907.387L276.873 911.073L278.811 905.109L273.738 901.424L280.008 901.424L281.946 895.461L283.883 901.424L290.153 901.424L285.081 905.109L287.018 911.073Z" fill="#FC9E1C" fill-opacity="0.65"/>
<path d="M294.922 864.829L295.211 870.479L300.868 870.373L296.119 873.449L299.039 878.295L294.001 875.72L291.264 880.672L290.975 875.022L285.318 875.127L290.067 872.052L287.147 867.206L292.185 869.781L294.922 864.829Z" fill="#4BC8EF" fill-opacity="0.45"/>
<path d="M131.366 345.128L134.599 346.641L136.216 343.458L136.523 347.015L140.088 346.824L137.161 348.868L139.109 351.86L135.875 350.347L134.258 353.53L133.952 349.973L130.387 350.164L133.314 348.12L131.366 345.128Z" fill="#DCBCFA" fill-opacity="0.9"/>
<path d="M301.359 515.096L297.003 516.022L296.537 520.452L294.31 516.595L289.954 517.521L292.934 514.211L290.707 510.354L294.776 512.165L297.756 508.856L297.291 513.285L301.359 515.096Z" fill="#9AF5FC" fill-opacity="0.75"/>
<path d="M82.1594 361.09L78.3072 357.962L75.0566 361.711L75.839 356.811L70.967 355.87L75.6016 354.098L73.9802 349.408L77.8325 352.536L81.0831 348.787L80.3007 353.687L85.1727 354.628L80.5381 356.4L82.1594 361.09Z" fill="#C9FCBE" fill-opacity="0.9"/>
<path d="M325.522 329.151L329.63 331.251L331.862 327.213L332.098 331.821L336.711 331.734L332.838 334.242L335.219 338.194L331.111 336.095L328.879 340.133L328.643 335.525L324.03 335.611L327.903 333.103L325.522 329.151Z" fill="#F54721" fill-opacity="0.65"/>
<path d="M290.497 289.707L289.275 294.721L292.286 298.911L287.272 297.69L283.082 300.7L284.303 295.687L281.293 291.497L286.306 292.718L290.497 289.707Z" fill="#03A3F5" fill-opacity="0.65"/>
<path d="M400.137 80.7854L402.649 76.2547L399.116 72.4661L404.201 73.4545L406.712 68.9238L407.344 74.0654L412.429 75.0539L407.734 77.2431L408.365 82.3848L404.832 78.5962L400.137 80.7854Z" fill="#9AF5FC" fill-opacity="0.35"/>
<path d="M340.293 95.2656L342.273 97.8071L344.878 95.9099L343.667 98.8959L346.612 100.203L343.421 100.647L343.762 103.851L341.781 101.31L339.177 103.207L340.388 100.221L337.442 98.9141L340.634 98.4696L340.293 95.2656Z" fill="#4BC8EF" fill-opacity="0.6"/>
<path d="M328.523 109.747L334.792 109.638L336.625 103.642L338.667 109.57L344.936 109.461L339.928 113.234L341.97 119.162L336.834 115.566L331.826 119.34L333.659 113.343L328.523 109.747Z" fill="#BA3E03" fill-opacity="0.45"/>
<path d="M277.382 483.548L276.038 477.695L270.144 478.848L274.542 474.758L270.596 470.23L276.337 471.993L278.285 466.312L279.629 472.166L285.523 471.012L281.125 475.103L285.071 479.63L279.33 477.867L277.382 483.548Z" fill="#03A3F5" fill-opacity="0.35"/>
<path d="M164.597 613.752L166.37 620.23L172.442 623.101L165.964 624.874L163.093 630.946L161.32 624.468L155.248 621.597L161.726 619.824L164.597 613.752Z" fill="#03A3F5" fill-opacity="0.65"/>
<path d="M331.852 695.333L334.374 692.334L331.459 689.716L335.317 690.401L336.126 686.568L337.462 690.251L341.187 689.036L338.664 692.034L341.579 694.652L337.722 693.967L336.912 697.801L335.577 694.117L331.852 695.333Z" fill="#BA3E03" fill-opacity="0.9"/>
<path d="M38.2488 359.389L42.2217 359.785L45.1085 357.027L44.7124 361L47.4705 363.887L43.4976 363.491L40.6108 366.249L41.0069 362.276L38.2488 359.389Z" fill="#4BC8EF" fill-opacity="0.45"/>
<path d="M378.161 531.97L380.498 534.39L383.522 532.915L381.942 535.886L384.279 538.305L380.966 537.721L379.387 540.691L378.919 537.36L375.606 536.776L378.63 535.301L378.161 531.97Z" fill="#FF21FB" fill-opacity="0.45"/>
<path d="M118.624 719.81L122.312 717.038L119.661 713.262L123.906 715.07L125.851 710.886L126.407 715.466L131.003 715.058L127.315 717.831L129.966 721.607L125.721 719.799L123.776 723.983L123.22 719.402L118.624 719.81Z" fill="#F54721" fill-opacity="0.85"/>
<path d="M30.7974 283.917L30.0661 290.875L36.4578 293.721L29.6141 295.176L28.8828 302.134L25.3845 296.075L18.5407 297.529L23.2224 292.33L19.7241 286.271L26.1158 289.116L30.7974 283.917Z" fill="#755FFE" fill-opacity="0.45"/>
</g>
<defs>
<clipPath id="clip0_203_227">
<rect width="428" height="926" fill="white"/>
</clipPath>
</defs>
</svg>
