<svg width="31" height="31" viewBox="0 0 31 31" fill="none" xmlns="http://www.w3.org/2000/svg">
<path d="M31 15.5C31 24.0604 24.0604 31 15.5 31C6.93959 31 0 24.0604 0 15.5C0 6.93959 6.93959 0 15.5 0C24.0604 0 31 6.93959 31 15.5Z" fill="#DAECF3"/>
<mask id="mask0_512_285" style="mask-type:alpha" maskUnits="userSpaceOnUse" x="0" y="0" width="31" height="31">
<path d="M31 15.5C31 24.0604 24.0604 31 15.5 31C6.93959 31 0 24.0604 0 15.5C0 6.93959 6.93959 0 15.5 0C24.0604 0 31 6.93959 31 15.5Z" fill="#DAECF3"/>
</mask>
<g mask="url(#mask0_512_285)">
<path d="M32 30.5C32 38.5081 24.8366 45 16 45C7.16344 45 0 38.5081 0 30.5C0 22.4919 7.16344 16 16 16C24.8366 16 32 22.4919 32 30.5Z" fill="#40898A" fill-opacity="0.7"/>
<path d="M22 11.5C22 15.0899 19.0899 18 15.5 18C11.9101 18 9 15.0899 9 11.5C9 7.91015 11.9101 5 15.5 5C19.0899 5 22 7.91015 22 11.5Z" fill="#F54721" fill-opacity="0.6"/>
</g>
</svg>
