<svg width="143" height="143" viewBox="0 0 143 143" fill="none" xmlns="http://www.w3.org/2000/svg">
<path d="M143 71.5C143 110.988 110.988 143 71.5 143C32.0116 143 0 110.988 0 71.5C0 32.0116 32.0116 0 71.5 0C110.988 0 143 32.0116 143 71.5Z" fill="#DAECF3"/>
<mask id="mask0_509_153" style="mask-type:alpha" maskUnits="userSpaceOnUse" x="0" y="0" width="143" height="143">
<path d="M143 71.5C143 110.988 110.988 143 71.5 143C32.0116 143 0 110.988 0 71.5C0 32.0116 32.0116 0 71.5 0C110.988 0 143 32.0116 143 71.5Z" fill="#DAECF3"/>
</mask>
<g mask="url(#mask0_509_153)">
<path d="M147.613 140.694C147.613 177.634 114.569 207.581 73.8064 207.581C33.0443 207.581 0 177.634 0 140.694C0 103.753 33.0443 73.8065 73.8064 73.8065C114.569 73.8065 147.613 103.753 147.613 140.694Z" fill="#40898A" fill-opacity="0.7"/>
<path d="M101.484 53.0484C101.484 69.6081 88.0596 83.0323 71.5 83.0323C54.9403 83.0323 41.5161 69.6081 41.5161 53.0484C41.5161 36.4888 54.9403 23.0646 71.5 23.0646C88.0596 23.0646 101.484 36.4888 101.484 53.0484Z" fill="#F54721" fill-opacity="0.6"/>
</g>
</svg>
